<svg id="Layer_2" data-name="Layer 2" xmlns="http://www.w3.org/2000/svg" viewBox="0 0 4579.9 4030.51">
  <defs>
    <style>
      .cls-1 {
        fill: #bd2619;
      }

      .cls-2 {
        fill: #6b221c;
      }

      .cls-3 {
        fill: #2d2d2d;
      }

      .cls-4 {
        fill: #222121;
      }

      .cls-5 {
        fill: #a9b2b2;
      }

      .cls-6 {
        fill: #901d13;
      }

      .cls-7 {
        fill: #e1eded;
      }

      .cls-8 {
        fill: #3f3535;
      }

      .cls-9 {
        fill: #060606;
      }

      .cls-10 {
        fill: #e0eded;
      }

      .cls-11 {
        fill: #a8b2b2;
      }

      .cls-12 {
        fill: #bf2719;
      }

      .cls-13 {
        fill: #8f1d13;
      }

      .cls-14 {
        fill: #3e3434;
      }

      .cls-15 {
        fill: #a9b3b3;
      }

      .cls-16 {
        fill: #8d2d24;
      }

      .cls-17 {
        fill: #be2719;
      }

      .cls-18 {
        fill: #070707;
      }
    </style>
  </defs>
  <g id="svg1">
    <g id="layer1">
      <g>
        <path class="cls-9" d="M720.89,2009.85c5.18-4.98,41.52-1.51,51.19-.7,30.59,2.56,60.98,9.12,91.2,13.99-8.2-30.26-17.17-60.51-21.97-91.63-40.58-263.02,81.74-544.07,280.07-715.05,16.32-14.07,78.85-65.36,95.32-70.24,7.04-2.09,31.78.74,39.5,2.84,30.07,8.15,109.25,89.98,130.12,116.79,5.38,6.91,18.83,33.08,25.56,33.64,3.29.28,49.56-19.84,58.75-22.76,141.44-44.84,300.4-44.35,443.19-5.52l9.91-4.36c314.42-272,741.68-394.45,1151.68-295.63,342.72,82.6,635.06,316.88,804.56,623.58,24.68,44.66,44.7,91.43,68.48,136.54,1.45,6.9-14.71,26.42-20.09,33.47-55.68,72.95-124.88,138.33-189.12,203.64,16.96,19.59,30.52,46.24,42.54,69.64,165.01,321.14,220.54,711.94,72.94,1050.35-55.78,127.9-167.1,318.07-268.31,413.49-133.21,125.59-273.51,243-436.3,329.67-950.82,506.26-2237.57,8.87-2471.19-1069.95-44.23-204.25-50.43-522.11,25.89-718.79,1.74-4.47,14.46-31.46,16.07-33.01ZM2485.02,1018.7c-3.92.98-5.31,2.73-5.61,2.81-.88.23-1.93-.23-2.81,0-3.62.95-6.5,2.28-8.42,2.81-1.59.44-4.03-.44-5.61,0-26.51,7.4-53.49,16.7-79.49,25.86-3.65,1.28-6.27,4.57-7.49,5.01-77.26,27.75-133.25,52.23-204.82,92.59-25.77,14.53-48.28,28.84-72.95,44.89-35.51,23.11-72.06,45.24-105.1,73.07-4.51,3.8-30.01,21.68-23.98,27.92,41.01,6.57,77.77,30.21,113.25,50.23,29.36-32.46,63.81-53.71,102.81-72.66,24.46-11.88,49.8-22.66,75.76-30.86,65.78-20.8,158.95-37.16,227.27-28.06,23.74,3.16,67.66,17.02,80.89,38.35,8.29,13.36,20.29,61.93,24.36,79.45,5.59,24.07,11.03,51.21,12.59,75.79.69,10.91.05,22.65,0,33.67-.11,25.74-1.18,56.05-5.61,81.37-9.93,56.75-41.78,132.97-75.76,179.57-14.23,19.52-42.9,49.21-61.73,64.53-22.41,18.25-69.07,48.19-95.4,58.92-8.9,3.63-23.9,4.24-33.29,8.79-6.63,10.26,26.07,76.64,31.29,92.82,33.87,105.01,36.28,218.58,30.09,327.67,49.14-42.42,96.95-90.77,137.37-141.77,4.58-5.78,7.94-13.71,11.31-18.16,16.27-21.51,33.34-42.32,47.76-65.88,4.9-8.01,17-24.29,16.78-32.32,11.51-12.85,20.28-30.99,27.72-46.63,55.18-115.97,84.4-254.72,28.88-376.12-5.07-11.08-26.88-42.9-28.09-47.95-1.06-4.43,2.57-13.88,5.16-17.5,8.29-11.61,50.45-37.95,64.53-44.89,49.72-24.52,110.14-39.49,165.54-42.09,26.29-1.23,52.62-.1,78.56,2.81,70.3,7.86,140.52,33.32,202.02,67.34,24.92,13.78,50.09,30.72,72.95,47.7,47.92,35.6,95.78,80.93,134.68,126.26,18.66,21.74,39.59,48.85,56.12,72.95,26.25,38.29,55.23,90.07,75.76,131.87,12.26,24.97,25.02,52.96,36.47,75.76,8.39,16.69,19.77,74.62,27.32,97.55,1.24,3.77,2.37,13.55,7.47,11.63,7.21-2.72,35.09-23.45,43.47-29.52,52.84-38.31,105.73-89.56,151.82-135.77,49.36-49.49,96.53-101.21,139.82-156.14-27.4-64.64-60.24-127.97-98.19-187.11-3.32-5.17-9.45-8.29-10.77-10.28-18.61-28.27-35.01-53.95-56.12-81.37-45.55-59.17-93.42-112.26-148.71-162.73-26.16-23.88-53.23-45.84-81.37-67.34-95.97-73.31-187.19-123-300.22-165.54-35.85-13.5-69.42-26.35-106.62-36.47-84.17-22.9-170.74-36.58-258.13-39.28-30.06-.93-62.5-.79-92.59,0-87.99,2.31-175.55,15.22-260.94,36.47ZM1329.04,1268.41c-18.53-20.79-36.56-40.65-60.44-58.8-9.57-7.28-28.38-25.05-39.71-20.43-243.57,160.23-407.16,488.78-335.63,780.16,3.54,14.44,13.76,57.98,25.36,64.43,195.11,56.9,377.51,146.08,544.86,260.39,166.82,113.95,317.61,250.87,447.85,405.13l3.97-.04c.45-3.32,1.77-6.01,4.62-7.95,23.31-15.84,108.45-26.16,136.49-22.08,27.87,4.06,46.74,23.08,54.09,49.72,17.06,61.81-15.17,133.83-63.15,172.79l58.93,116.25c5.79,1.2,6.49-2.85,8.93-6.46,21.44-31.71,47.91-95.11,64.47-131.93,121.16-269.42,235.98-659.1,139.86-948.89-28.21-85.04-69.18-164.58-109.34-244.25-3.12-16.45,9.12-29.66,25.9-25.89,14.32,3.22,23.44,29.15,30.08,41.52,17.5,32.64,33.79,66.44,48.06,100.65,116.82-25.92,205.7-132.12,235.11-245.36,22.85-87.99,17.3-160.49-11.01-245.3-9.39-28.14,4.61-28.16-31.53-40.01-94.86-31.13-299.23,23.45-373.83,90.59-10.82,9.74-25.08,32.66-32.39,37.75-20.37,14.19-34.08-6.76-50.68-16.56-160.39-94.66-431.66-118.95-602.96-42.25-4.42,1.98-14.28,4.86-13.73,10.63.67,6.98,15.1,33.17,18.61,43.3,37.12,107.29,34.63,224.19-22.34,324.23-14.99,26.33-73.28,99.58-99.48,110.95-26.68,11.58-45.23-11.29-26.22-33.22,4.69-5.41,14.42-10.33,19.68-15.39,111.04-106.94,137.09-241.53,83.48-386.58-18.81-50.89-42.96-77.87-77.91-117.1ZM3887.9,2803.17c29.79-245.78-23.29-490.48-128.57-711.76-15.43-32.42-34.65-62.99-48.23-96.3-4.24-1.15-4.65,1.12-7.01,2.76-30.81,21.28-60.97,54.28-94.26,76.89-20.44,13.88-69.51,48.99-85.28,12.94-13-29.74-20.75-76.38-32.97-110.12-101.68-280.83-408.57-619.97-739.12-488.02-8.51,3.4-58.61,27.02-61.38,31.35-1.84,2.88-1.44,5.59-.05,8.48,111.82,207.56,2.63,452.08-133.13,618.57-22.42,27.5-48.03,52.23-70.07,80.01,241.71-77.38,536.09-53.82,739.2,106.77,31.78,25.13,101.67,91.76,115.8,128.28,12.13,31.38-15.24,45.37-38.45,18.83-26.59-30.4-44.25-60.97-75.79-89.75-178.85-163.23-469.16-197.28-695.86-131.83-49.8,14.38-96.25,37.34-144.71,54.5-17.32,142.44-55.8,281.31-105.01,415.46-40.76,111.12-89.86,221.13-148.59,323.76,140.04,109.04,335.39,124.71,504.95,90.12,154.3-31.48,298.9-113.47,405.99-228.13,33.89-4.61,36.47,22.14,17.66,44.32-169.47,199.84-522.72,287.89-770.92,219.58-50.5-13.9-97.19-36.44-143.75-59.64,4.76,23.84,22.33,70.79,19.6,93.71-2.16,18.1-26.23,25.81-37.75,12.8-5.86-6.62-19.62-84.04-24.73-101.53-88.29-301.81-393.99-605.63-646.46-781.68-144.81-100.97-306.15-188.74-475.06-241.81-2.51-2.49-6.55-4.23-9.9-5.45-74.65-21.12-150.67-39.79-228.32-44.77-140.19,480.93-11.65,990.46,311.24,1364.64,649.39,752.54,1896.04,769.96,2539.08,0,138.62-165.98,265.67-396.85,291.87-612.99ZM2022.12,2853.65c5.25,3.66,23.4-23.6,26.36-28.29,21.35-33.9,26.55-66.95,17.18-106.46-42.18-16.28-87.93,3.62-130.55,8.52l87.02,126.23Z"/>
        <path class="cls-14" d="M459.26,1515.35c36.2,46.61,55.46,100.65,30.24,157.88-63.49,144.08-323.99,11.53-414.4-44.5-18.04-11.18-63.44-37.22-70.96-55.29-12.04-28.93,3.09-64.91,33.63-74.15,38.64-11.69,58,16.19,87.84,34.05,54.58,32.67,129.24,70.86,190.57,87.2,19.51,5.2,50.28,14.71,65.92-1.38,12.06-25.16-33.47-61.81-50.57-75.69-31.3-25.41-66.93-46.82-102.27-66.07-24.02-13.08-71.83-27.21-82.85-51.83-17.35-38.74,11.54-91.95,56.18-89.99,24.65,1.08,92.96,38.2,123.31,47.99,41.93,13.52,101.68,28.25,144.78,18.32,52.98-12.2-10.46-54.2-30.67-67.89-57.31-38.82-129.03-64.58-194.63-85.95-33.18-10.81-70.4-10.19-77.22-54.65-4.72-30.78,20.69-61.6,51.31-62.58,23.39-.74,111.05,29.72,137.45,39.35,94.66,34.54,301.05,136.54,241.2,266.55-23.79,51.67-83.95,78.33-138.84,78.64Z"/>
        <path class="cls-14" d="M3176.22,270.54c-38.08,37.25-61.59,100.93-50.25,153.51,16.98,78.74,132.47,125.32,175.51,40.48-39.07-23.05-93.97-16.32-92.77-75.76.64-31.41,29.23-54.96,59.8-51.14,25.1,3.14,95.49,33.97,115.69,49.83,71.92,56.46,3.04,163.8-55.41,202.58-129.08,85.64-289.4-18.03-310.33-159.5-26.28-177.64,129.9-354.48,314.51-297.68,64.61,19.88,163.48,98.7,128.94,175.05-15.6,34.49-57.92,47.47-87.56,22.06-24.9-21.35-11.43-57.25-44.97-81.29-48.17-34.53-113.46-16.98-153.16,21.85Z"/>
        <path class="cls-14" d="M3949.63,712.84c62.86,1.61,104.4,60.06,89.79,120.66,87.69-11.08,134.99,58.01,119.38,140.45-16.02,84.6-121.83,196.24-195.97,236.12-55.37,29.78-97.08-37.47-56.63-73.46,44.54-39.63,91.68-63.36,130.33-113.78,22.18-28.93,56.26-95.32-9.76-88.3-58.92,6.27-130.63,96.4-180.03,128.58-56.58,36.86-104.24-27.31-59.88-71.1,42.63-42.08,154.03-106.77,145.98-176.79-1.2-10.46-4.71-16.23-15.65-17.99-37.78-6.09-99.34,39.03-127.54,62.9-21.09,17.85-69.15,73.8-92.39,78.75-36.86,7.85-64.41-24.44-54.96-60.55,3.04-11.59,26.9-32.67,36.49-42.08,29.13-28.59,61.56-54.64,91.3-82.66,38.68-36.44,82.95-85.81,123.38-117.91,59.14-46.96,115.58,31.54,56.15,77.16Z"/>
        <path class="cls-14" d="M1241.45,264.73c101.23-12.04,168.41,81.45,124.56,175.07-22.66,48.39-55.47,62.99-99.53,85.65-1.85.95-6.2,2.69-3.4,5.05,20.31,26.04,68.55,55.17,99.46,32.09,20.03-14.96,7.82-37.39,16.45-59.3,19.62-49.8,84.55-36.14,90.37,17.38,10.18,93.65-69.08,155.08-158.21,141.38-112.13-17.24-200.76-158.52-189.38-267.27,6.27-59.9,58.32-122.73,119.68-130.03ZM1216.94,443.39c33.36,6.21,94.74-65.19,57.07-86.52-38.95-22.06-73.15,55.3-57.07,86.52Z"/>
        <path class="cls-14" d="M4232.39,1140.12c58.58-6.56,112.72,9.13,150.77,55.3,67.31,81.68,12.28,210.74-97.88,201.68-65.39-5.38-112.16-58.81-137.84-114.62-23.42,20.6-48.45,55.91-38.04,88.49,14.49,45.33,73.69,1.51,94.1,54.6,23.8,61.92-61.41,72.83-105.1,57.41-88.24-31.15-102.71-135.2-62.26-210.85,33.26-62.2,126.2-124.18,196.25-132.02ZM4230.21,1234.76c5.29,22.84,21.18,48.66,42.27,60.12,52.18,28.36,69.63-28.55,24.88-52.94-21.36-11.64-43.78-10.96-67.15-7.19Z"/>
        <path class="cls-14" d="M560.24,861.57c5.74-77.73,63.59-132.73,143.27-116.58,67.75,13.73,176.17,112.81,221.59,165.61,20.82,24.2,36.41,55.6,3.72,79.62-30.81,22.63-49.38,7.52-71.2-14.94-37.11-38.19-80.11-87.86-126.41-114.89-95.53-55.77-99.01,58.96-44.38,114.52,20.46,20.81,122.5,89.08,127.53,105.35,10.23,33.15-14.51,69.25-49.94,64.08-21.78-3.18-97.04-66.35-118.49-83.64-36.86-29.7-75.95-62.13-110.94-93.89-16.48-14.96-60.74-50.95-63.84-70.88-5.76-36.92,23.49-59.92,59.01-53.35,12.6,2.33,19.04,13.53,30.1,18.97Z"/>
        <path class="cls-14" d="M3526.94,832.53c-7.27-6.55-9.81-20.58-12.82-23.64-2.22-2.26-14.13-4.75-19.14-7.52-65.2-36.08-122.76-95.23-88.35-175.57,38.23-89.27,174.89-65.18,230.17-5.56,31.94-39.21,32.55-82.85-4.09-119.31-28.39-28.25-74.26-31.89-63.4-82.81,3.69-17.31,21.85-32.71,39.53-33.64,42.75-2.25,111.58,64.57,128.93,101.17,44.04,92.92-15.65,183.02-70.4,254.99-17.97,23.63-60.23,78.73-82.66,94.1-17.91,12.27-41.08,12.83-57.76-2.21ZM3559.11,729.18c3.39-1.99,27.95-35.19,24.52-41.55-6.28-11.64-47.73-31.1-61.89-31.09-63.27.06,19.27,83.27,37.37,72.63Z"/>
        <path class="cls-14" d="M2276.82,20.7c234.16-17.55,231.77,418.84,2.34,400.01-203.99-16.74-203.6-384.93-2.34-400.01ZM2285.3,113.09c-70.42,5.04-73.57,111.77-56.88,161.96,19.58,58.86,91.61,72.37,118.71,12.34,23.17-51.33,17.53-179.97-61.83-174.3Z"/>
        <path class="cls-14" d="M4434.36,1448.71c110.13-15.97,188.19,156.39,120.01,226.63-28.79,29.66-79.03,6.48-79.5-32.33-.16-13.15,8.75-24.95,10.42-36.75,2.81-19.8-1.95-66.93-31.66-51.29-30.59,16.1-28.11,83.41-36.82,114.69-35.91,129.01-210.82,136.23-260.06,15.92-21.52-52.59-4.85-124.69,41.67-158.55,38.81-28.25,89.11-4.75,78.84,45.17-3.56,17.28-24.21,25.77-30.82,39.32-22.72,46.59,31.95,88.3,69.46,52.62,23.02-21.9,17.59-80.16,25.1-112.38,10.5-44.98,44.39-95.96,93.35-103.06Z"/>
        <path class="cls-14" d="M2636.52,314.44c-6.46-1.56-4.6,1.22-6.41,3.55-18.99,24.41-40.18,86.71-66.81,98.58-37.19,16.56-76.01-20.38-62.05-59.24l92.78-157.17c-11.6-52.55-39.56-99.83-55.8-150.94.74-35.25,28.85-57.38,63.41-46.36,34.12,10.88,39.95,71.92,58.76,98.31,3.91-.17,37.89-54.85,46.18-63.19,35.49-35.7,93.28-3.29,77.86,47.02l-85.48,124.7c6.36,24.09,16.12,47.22,23.15,71.1,8.2,27.81,32.3,99.77,29.22,124.6-5.64,45.52-71.1,55.38-90.33,3.85-10.76-28.85-16.26-64.73-24.47-94.8Z"/>
        <path class="cls-14" d="M1923.86,311.65c-4.24,4.39,27.81,86.42,26.76,103.92-2.09,34.88-42.78,52.52-72.59,33.09-23.97-15.62-36.3-83.97-43.95-111.79-30.29,5.21-57.18,19.68-78.11-13.06-26.9-42.08,16.58-71.4,55.53-74.02-6.98-66.98-22.2-142.74,28.27-197.61,37.76-41.05,112.67-47.61,162.6-28.08,38.17,14.93,38.81,70.41.04,84.08-28.93,10.2-49.73-11.93-80.5.88-27.26,11.35-27.67,43.72-26.07,69.26.47,7.57,4,35.83,6.09,41.61,1.03,2.86,2.55,5.06,5.88,4.25,26.53-3.6,75.68-22.87,100.37-17.95,31.9,6.36,47.76,43.61,27.89,70.31-20.06,26.97-81.17,26.17-112.22,35.1Z"/>
        <path class="cls-14" d="M989.96,626.34c-2.25,3.87,1.73,10.08,3.95,13.45,10.63,16.12,57.49,66.55,72.87,78.63,48.73,38.26,32.14-22.97,65.05-35.8,30.59-11.92,61.81,16.89,64.19,47.08,2.69,34.17-32.84,79.18-64.24,90.32-71.79,25.46-130.35-34.39-174.52-81.86-6.22-6.68-36.65-47.25-39.69-47.91-10.01-2.17-25.88,17.76-35.43,23.21-48.92,27.97-96.45-30.06-58.1-72.13,6.11-6.71,30.92-20.09,30.87-28.03-.04-6.56-30.32-40.35-34.35-52.7-11.66-35.8,14.61-69.56,52.39-63.59,24.39,3.85,41.33,41.63,56.5,58.67,5.49,1.28,57.47-46.61,71.4-51.75,36.7-13.53,68.86,17.22,61.02,55.39-4.95,24.12-53.14,51.02-71.91,67.01Z"/>
        <path class="cls-14" d="M1684.4,161.12c22.23,21.07,15.54,66.68-15.06,76.99-26.16,8.81-27.25-1.92-47.34-4.77-59.44-8.45-77.4,35.58-66.67,86.3,13.01,61.5,49.24,124.61,62.82,186.89,3.89,55.83-63,72.1-88.52,24-29.98-105.12-82.47-210.96-110.85-315.62-5.17-19.08-7.66-28.15,4.44-46.16,23.83-35.47,69.76-22.14,84.02,13.84,23.49-19.84,49.97-38.23,81.63-41.78,26.28-2.95,75.52,1.37,95.53,20.33Z"/>
        <path class="cls-14" d="M492.21,1050.22c14.65-2.35,22.85,1.93,35.25,8.3,62.3,32,124.98,91.85,186.85,127.39,34.67,38.92,1.91,92.75-49.45,77.51l-195.77-132.5c-24.71-25.66-15.03-74.59,23.12-80.7Z"/>
        <path class="cls-8" d="M402.54,982.81c57.7-4.61,68.95,83.84,12.99,91.75-69.69,9.86-72.96-86.95-12.99-91.75Z"/>
        <path class="cls-7" d="M2283.01,2730.22c49.21-134.14,87.69-273.02,105.01-415.46,48.46-17.17,94.91-40.13,144.71-54.5,226.71-65.45,517.02-31.41,695.86,131.83,31.54,28.78,49.2,59.35,75.79,89.75,23.21,26.54,50.58,12.55,38.45-18.83-14.12-36.52-84.02-103.16-115.8-128.28-203.11-160.59-497.49-184.15-739.2-106.77,22.05-27.77,47.65-52.51,70.07-80.01,135.76-166.49,244.95-411.01,133.13-618.57-1.39-2.89-1.8-5.6.05-8.48,2.77-4.32,52.87-27.95,61.38-31.35,330.56-131.95,637.44,207.19,739.12,488.02,12.22,33.74,19.97,80.39,32.97,110.12,15.76,36.05,64.84.94,85.28-12.94,33.3-22.61,63.45-55.61,94.26-76.89,2.37-1.64,2.77-3.91,7.01-2.76,13.59,33.31,32.81,63.88,48.23,96.3,105.28,221.27,158.36,465.98,128.57,711.76-7.75-1.66-5.27,4.01-6.93,8.36-66.61,175.05-103.76,244.49-242.75,371.86-96.85,88.75-221.59,199.56-350.17,233.43-85.44,22.5-175.64,36.18-262.56,48.88-238.81,34.88-438.79,153.8-674.63,192.35-196.59,32.13-385.74-5.73-555.14-108.06-304.21-183.76-376.4-617.12-477.15-928.54-69.14-213.71-178.62-364.48-334.63-519.72,168.91,53.07,330.26,140.84,475.06,241.81,252.47,176.05,558.17,479.87,646.46,781.68,5.12,17.49,18.87,94.91,24.73,101.53,11.53,13.01,35.59,5.3,37.75-12.8,2.74-22.92-14.83-69.87-19.6-93.71,46.56,23.2,93.25,45.74,143.75,59.64,248.2,68.31,601.45-19.75,770.92-219.58,31.25-6.79,35.82-53.86,33.62-79.92-15.19-179.86-236.69-235.05-382.96-251.15-157.47-17.33-292.59-8.63-417.94,95.49-4.16,3.45-6.38,6.54-12.73,5.5Z"/>
        <path class="cls-15" d="M983.93,2101.72c156.02,155.24,265.49,306.01,334.63,519.72,100.75,311.42,172.95,744.78,477.15,928.54,169.41,102.33,358.55,140.19,555.14,108.06,235.84-38.55,435.82-157.47,674.63-192.35,86.92-12.69,177.12-26.38,262.56-48.88,128.59-33.87,253.32-144.67,350.17-233.43,138.99-127.36,176.14-196.81,242.75-371.86,1.66-4.36-.82-10.03,6.93-8.36-26.2,216.14-153.25,447-291.87,612.99-643.03,769.96-1889.69,752.54-2539.08,0-322.89-374.18-451.44-883.71-311.24-1364.64,77.64,4.97,153.67,23.64,228.32,44.77,3.35,1.21,7.39,2.95,9.9,5.45Z"/>
        <path class="cls-10" d="M2266.17,1692.08c-6.63-12.37-15.76-38.3-30.08-41.52-16.78-3.77-29.02,9.44-25.9,25.89,40.16,79.68,81.13,159.22,109.34,244.25,96.12,289.79-18.7,679.47-139.86,948.89-16.56,36.83-43.03,100.22-64.47,131.93-2.44,3.6-3.13,7.66-8.93,6.46l-58.93-116.25c47.98-38.96,80.22-110.98,63.15-172.79-7.35-26.64-26.22-45.66-54.09-49.72-28.03-4.08-113.17,6.24-136.49,22.08-2.85,1.94-4.18,4.63-4.62,7.95l-3.97.04c-130.24-154.26-281.03-291.18-447.85-405.13-167.35-114.31-349.75-203.5-544.86-260.39-11.6-6.45-21.81-49.99-25.36-64.43-71.53-291.38,92.06-619.93,335.63-780.16,11.33-4.62,30.14,13.15,39.71,20.43,23.88,18.16,41.91,38.01,60.44,58.8l2.83,79.94c7.28,104.01,1.11,214.55-30.84,314.33-13.35,41.7-32.87,80.71-50.59,120.61-.65,5.67.27,3.71,4.24,4.25,9.56,1.31,29.46-3.46,40.67-4.31,5.06-.38,9.67-5.11,8.43,4.25-19.02,21.93-.46,44.8,26.22,33.22,26.2-11.37,84.48-84.62,99.48-110.95,56.97-100.03,59.46-216.93,22.34-324.23-3.5-10.13-17.94-36.31-18.61-43.3-.55-5.77,9.31-8.65,13.73-10.63,171.3-76.7,442.57-52.41,602.96,42.25,16.6,9.8,30.31,30.75,50.68,16.56,7.32-5.1,21.57-28.01,32.39-37.75,74.59-67.14,278.97-121.72,373.83-90.59,36.14,11.86,22.14,11.87,31.53,40.01l-8.42,22.43h11.25c.57,5.88-.06,11.15-1.4,16.89-4,17.17-24.23,58.66-32.69,76.72-51.55,110.06-137.32,210.1-240.9,273.96ZM1703.18,2246.66c2.35,2.41,6.35,3.46,8.95,6.41,12.87,14.6,30.06,54.83,54.58,43.61,23.86-10.92.25-39.99-8.9-52.75-74.89-104.47-207.9-141.76-331.92-128.14-21.34,2.34-129.45,17.46-96.92,57.56,12.47,15.37,49.08-4.87,67.31-8.6,112.3-22.98,226.42-.71,306.89,81.9ZM2161.73,2133.36c-53.84,6.12-111.63,40.1-149.19,78.07-13.97,14.12-51.06,52.55-33.86,72.56,22.06,25.67,53.18-30.56,65.86-43.37,55.92-56.52,149.33-90.87,218.6-36.26,14.59,11.51,33.45,43.81,53.77,25.23,20.08-18.36-8.16-44.34-22.63-56.36-35.91-29.83-85.76-45.19-132.53-39.87Z"/>
        <path class="cls-15" d="M3063.01,2960.29c18.81-22.18,16.24-48.93-17.66-44.32-107.08,114.66-251.69,196.65-405.99,228.13-169.55,34.59-364.91,18.93-504.95-90.12,58.73-102.63,107.83-212.65,148.59-323.76,6.35,1.04,8.58-2.04,12.73-5.5,125.35-104.12,260.47-112.82,417.94-95.49,146.26,16.09,367.77,71.29,382.96,251.15,2.2,26.06-2.38,73.13-33.62,79.92Z"/>
        <path class="cls-12" d="M2745.96,982.22c57.96,87.56,100.05,186.48,112.23,291.8-32.24,8.01-63.31,21.95-94.5,33.16l-101.9,53.82c-54.75-114.78-123.78-226.5-203.43-325.51l4.22-11.18c1.58-.44,4.02.44,5.61,0l8.42-2.81c.88-.23,1.93.23,2.81,0l5.61-2.81c85.39-21.25,172.95-34.17,260.94-36.47Z"/>
        <path class="cls-12" d="M3096.68,1021.5c46.25,76.04,68.86,163.97,75.76,252.52-38.04-3.91-75.31-14.59-113.66-16.81-41.47-2.4-83.53.89-124.83,2.78-1.57-9.89-1.61-20.93-3.63-31.44-16.84-87.53-48.73-168.71-91.77-246.33,87.39,2.7,173.96,16.38,258.13,39.28Z"/>
        <path class="cls-12" d="M3503.51,1223.52c7.04,68.95-1.22,138.82-21.03,204.94-.85,2.85-3.98,4.76-4.22,5.5-25.1-14.85-46.76-34.83-70.93-51.12-48.62-32.79-101.29-60.5-156.34-80.75-.02-.93.03-1.87,0-2.81-1.21-42.87-6.48-84.84-14.85-126.84l-32.85-114.45c113.03,42.54,204.25,92.23,300.22,165.54Z"/>
        <path class="cls-6" d="M3478.26,1433.95c-.69,2.18.7,6.3,0,8.42-16.87,50.98-72.86,175.74-105.88,215.38-3.77,4.53-4.77,7.49-11.96,6.28-38.89-45.33-86.75-90.66-134.68-126.26,4.62-48.25,17.84-96,22.43-144.51,2.87-30.28,3.43-60.76,2.82-91.17,55.05,20.25,107.72,47.95,156.34,80.75,24.16,16.3,45.83,36.28,70.93,51.12Z"/>
        <path class="cls-13" d="M2487.83,1821.15c25.18,89.31,46.65,179.51,56.12,272.16-3.37,4.45-6.72,12.38-11.31,18.16-40.42,51-88.23,99.35-137.37,141.77,6.19-109.09,3.78-222.66-30.09-327.67-5.22-16.18-37.92-82.56-31.29-92.82,9.4-4.54,24.39-5.16,33.29-8.79,3.86,3.31,7.21,5.24,12.48,5.74,36.89,3.46,70.03-2.1,105.36-8.55.91-.17,1.91.18,2.81,0Z"/>
        <path class="cls-11" d="M2538.33,1302.08c28.31,84.81,33.86,157.3,11.01,245.3-29.41,113.24-118.29,219.44-235.11,245.36-14.27-34.22-30.57-68.02-48.06-100.65,103.58-63.85,189.35-163.89,240.9-273.96,8.46-18.07,28.7-59.56,32.69-76.72,1.34-5.74,1.97-11.02,1.4-16.89h-11.25s8.42-22.43,8.42-22.43Z"/>
        <path class="cls-6" d="M3542.8,1495.68c10.49,18.53,28.49,34.85,42.01,51.98,14.15,17.93,63.14,80.67,70.22,96.72.8,1.82-.82,7,0,8.42-4.81,1.72-6.37,5.48-8.91,9.32-43.79,66.21-83.09,126.93-134.26,188.42-4.52,5.43-12.8,16.48-19.57,18.31-20.53-41.8-49.51-93.58-75.76-131.87,21.14-41.08,47.36-79.67,68.86-120.53,9.83-18.68,54.53-106.29,51.79-120.77h5.61Z"/>
        <path class="cls-5" d="M1303.79,1787.48c1.24-9.36-3.37-4.63-8.43-4.25-11.21.85-31.11,5.61-40.67,4.31-3.96-.54-4.88,1.42-4.24-4.25,17.72-39.9,37.23-78.9,50.59-120.61,31.95-99.78,38.12-210.32,30.84-314.33l-2.83-79.94c34.95,39.23,59.1,66.21,77.91,117.1,53.62,145.06,27.56,279.64-83.48,386.58-5.26,5.07-14.99,9.98-19.68,15.39Z"/>
        <path class="cls-6" d="M3172.43,1274.02c.14,1.85-.12,3.76,0,5.61,4.06,61.62-1.41,119.38-12.04,180.15-1.78,10.2-3.81,20.63-7.6,30.28-61.5-34.02-131.72-59.48-202.02-67.34-3.22-47.02-5.26-94.6-11.58-141.32-.91-6.75-4.54-13.99-5.26-18.61-.14-.91.14-1.89,0-2.81,41.3-1.89,83.36-5.18,124.83-2.78,38.35,2.22,75.62,12.9,113.66,16.81Z"/>
        <path class="cls-17" d="M3758.84,1888.49l-64.53-154.32c-.25-2.74.37-5.73,0-8.42,6.04,1.32,6.07-3.26,8.41-6.88,36.52-56.59,63.04-121.17,86.99-183.91,1.31,1.99,7.45,5.11,10.77,10.28,37.95,59.13,70.8,122.46,98.19,187.11-43.3,54.93-90.46,106.65-139.82,156.14Z"/>
        <path class="cls-12" d="M3733.59,1453.59c-17.06,66.48-42.53,132.43-78.56,190.79-7.08-16.05-56.08-78.79-70.22-96.72-13.52-17.13-31.52-33.46-42.01-51.98l27.18-97.68,14.91-107.14c55.28,50.48,103.15,103.56,148.71,162.73Z"/>
        <path class="cls-13" d="M3694.31,1734.17l64.53,154.32c-46.09,46.21-98.98,97.46-151.82,135.77-8.38,6.07-36.25,26.81-43.47,29.52-5.1,1.92-6.23-7.86-7.47-11.63-7.55-22.93-18.93-80.86-27.32-97.55,63.68-62.56,113.74-137.96,165.54-210.43Z"/>
        <path class="cls-13" d="M2605.67,1439.56c10.33-1.71,6.63,1.08,9.25,6.09,10.32,19.76,16.07,41.88,27.23,61.25-2.59,3.63-6.22,13.07-5.16,17.5,1.21,5.05,23.02,36.87,28.09,47.95,55.52,121.4,26.3,260.15-28.88,376.12-7.44,15.64-16.21,33.78-27.72,46.63-.84-29.61-20.52-97.98-28.86-129.67-5.74-21.85-15.57-44.09-21.65-63.93-.67-2.2.68-6.24,0-8.42,15.85-.33,32.11-22.05,39.84-34.51,16.28-26.25,25.98-65.86,29.9-96.35,2.78-21.62,8.95-75.52,5.84-94.83-2.09-12.94-21.32-40.06-33.5-46.47,4.43-25.32,5.5-55.63,5.61-81.37Z"/>
        <path class="cls-17" d="M2375.6,1055.17c39.36,50.62,82.98,100,112.23,157.12-68.32-9.1-161.49,7.26-227.27,28.06-18.3-32.48-54.44-56.98-82.26-81.88-3.6-3.22-7.79-4.34-7.53-10.71,71.57-40.36,127.56-64.84,204.82-92.59Z"/>
        <path class="cls-16" d="M2462.57,1024.31l-4.22,11.18c79.65,99.01,148.68,210.73,203.43,325.51.53,1.12-.36,3.93,0,5.61-21.71,7.71-35.34,29.82-56.12,39.28-1.56-24.58-7-51.72-12.59-75.79-4.07-17.52-16.07-66.09-24.36-79.45-13.24-21.33-57.15-35.19-80.89-38.35-29.25-57.12-72.87-106.5-112.23-157.12,1.22-.44,3.84-3.72,7.49-5.01,26-9.15,52.98-18.46,79.49-25.86Z"/>
        <path class="cls-6" d="M2860.99,1274.02l11.22,145.9c-55.4,2.59-115.82,17.57-165.54,42.09l-44.89-95.4c-.36-1.68.53-4.49,0-5.61l101.9-53.82c31.19-11.21,62.26-25.15,94.5-33.16.88-.22,1.92.21,2.81,0Z"/>
        <path class="cls-16" d="M2838.55,982.22c43.04,77.62,74.93,158.8,91.77,246.33,2.02,10.51,2.06,21.55,3.63,31.44.14.91-.14,1.89,0,2.81-24.46.13-49.21,5.53-72.95,11.22-.88.21-1.93-.22-2.81,0-12.18-105.32-54.27-204.24-112.23-291.8,30.09-.79,62.53-.93,92.59,0Z"/>
        <path class="cls-2" d="M3694.31,1725.75c.37,2.68-.25,5.68,0,8.42-51.8,72.47-101.86,147.88-165.54,210.43-11.45-22.79-24.21-50.79-36.47-75.76,6.77-1.82,15.05-12.88,19.57-18.31,51.16-61.49,90.46-122.21,134.26-188.42,2.54-3.84,4.1-7.59,8.91-9.32,8.26,14.19,37.5,60.13,39.28,72.95Z"/>
        <path class="cls-2" d="M3537.18,1495.68c2.75,14.48-41.96,102.09-51.79,120.77-21.5,40.86-47.73,79.45-68.86,120.53-16.52-24.1-37.46-51.21-56.12-72.95,7.19,1.21,8.19-1.75,11.96-6.28,33.02-39.64,89.01-164.4,105.88-215.38,6.41-1.09,8.56,2.14,12.73,5.5,8.01,6.47,44.84,40.65,46.19,47.81Z"/>
        <path class="cls-16" d="M3203.3,1057.98l32.85,114.45c8.37,42,13.64,83.97,14.85,126.84-26.45-4.99-51.12-20.94-78.56-19.64-.12-1.86.14-3.76,0-5.61-6.9-88.55-29.5-176.48-75.76-252.52,37.2,10.12,70.76,22.98,106.62,36.47Z"/>
        <path class="cls-2" d="M2557.97,1801.51c6.08,19.83,15.91,42.08,21.65,63.93,8.33,31.69,28.02,100.06,28.86,129.67.23,8.04-11.87,24.31-16.78,32.32-14.42,23.55-31.49,44.37-47.76,65.88-9.46-92.65-30.93-182.85-56.12-272.16,24.1-4.73,47.61-9.05,70.14-19.64Z"/>
        <path class="cls-2" d="M3251,1299.27c.03.93-.02,1.87,0,2.81.6,30.42.05,60.9-2.82,91.17-4.59,48.51-17.81,96.26-22.43,144.51-22.86-16.98-48.03-33.92-72.95-47.7,3.78-9.65,5.81-20.08,7.6-30.28,10.63-60.77,16.1-118.53,12.04-180.15,27.44-1.3,52.11,14.65,78.56,19.64Z"/>
        <path class="cls-16" d="M3584.88,1290.86l-14.91,107.14-27.18,97.68h-5.61c-1.36-7.15-38.18-41.34-46.19-47.81-4.17-3.37-6.32-6.6-12.73-5.5.7-2.12-.69-6.24,0-8.42.23-.74,3.36-2.64,4.22-5.5,19.82-66.12,28.08-135.99,21.03-204.94,28.14,21.5,55.21,43.45,81.37,67.34Z"/>
        <path class="cls-16" d="M3789.7,1534.96c-23.95,62.74-50.46,127.32-86.99,183.91-2.34,3.62-2.37,8.2-8.41,6.88-1.78-12.82-31.02-58.76-39.28-72.95-.82-1.42.8-6.6,0-8.42,36.03-58.36,61.51-124.31,78.56-190.79,21.11,27.42,37.51,53.1,56.12,81.37Z"/>
        <path class="cls-1" d="M2097.82,1192.66c22.58,19.89,48.08,37.01,70.18,57.48,6.11,5.65,14.98,12.6,16.79,21.08-39,18.95-73.45,40.2-102.81,72.66-35.47-20.02-72.23-43.66-113.25-50.23-6.03-6.25,19.47-24.12,23.98-27.92,33.04-27.83,69.58-49.96,105.1-73.07Z"/>
        <path class="cls-1" d="M2557.97,1793.09c-9.74-31.16-18.45-63.66-33.67-92.59,33.98-46.6,65.82-122.82,75.76-179.57,12.18,6.41,31.41,33.52,33.5,46.47,3.11,19.3-3.06,73.21-5.84,94.83-3.92,30.49-13.62,70.1-29.9,96.35-7.73,12.46-23.99,34.19-39.84,34.51Z"/>
        <path class="cls-2" d="M2933.94,1262.8c.71,4.62,4.34,11.85,5.26,18.61,6.32,46.73,8.36,94.3,11.58,141.32-25.94-2.9-52.27-4.04-78.56-2.81l-11.22-145.9c23.74-5.69,48.49-11.09,72.95-11.22Z"/>
        <path class="cls-4" d="M2022.12,2853.65l-87.02-126.23c42.62-4.91,88.37-24.8,130.55-8.52,9.37,39.51,4.18,72.57-17.18,106.46-2.95,4.69-21.11,31.95-26.36,28.29Z"/>
        <path class="cls-16" d="M2170.77,1147.76c-.26,6.37,3.93,7.49,7.53,10.71,27.82,24.9,63.96,49.41,82.26,81.88-25.95,8.2-51.3,18.98-75.76,30.86-1.81-8.48-10.69-15.43-16.79-21.08-22.11-20.47-47.6-37.59-70.18-57.48,24.67-16.05,47.18-30.36,72.95-44.89Z"/>
        <path class="cls-2" d="M2661.78,1366.61l44.89,95.4c-14.08,6.94-56.25,33.29-64.53,44.89-11.15-19.37-16.9-41.5-27.23-61.25-2.61-5,1.08-7.79-9.25-6.09.05-11.02.69-22.76,0-33.67,20.78-9.46,34.41-31.57,56.12-39.28Z"/>
        <path class="cls-16" d="M2557.97,1793.09c.68,2.18-.67,6.22,0,8.42-22.54,10.59-46.05,14.91-70.14,19.64-.9.18-1.9-.17-2.81,0-2.07-14.92-7.36-33.38-13.17-47.15-2.1-4.98-1.98-9.35-9.28-8.97,18.82-15.33,47.5-45.02,61.73-64.53,15.22,28.93,23.93,61.44,33.67,92.59Z"/>
        <path class="cls-1" d="M2485.02,1821.15c-35.33,6.45-68.47,12.01-105.36,8.55-5.28-.5-8.62-2.43-12.48-5.74,26.33-10.73,72.99-40.68,95.4-58.92,7.3-.38,7.17,3.99,9.28,8.97,5.81,13.76,11.1,32.22,13.17,47.15Z"/>
        <path class="cls-16" d="M2476.6,1021.5l-8.42,2.81c1.91-.52,4.8-1.86,8.42-2.81Z"/>
        <path class="cls-16" d="M2485.02,1018.7l-5.61,2.81c.3-.08,1.69-1.83,5.61-2.81Z"/>
        <path class="cls-3" d="M1703.18,2246.66c-80.47-82.62-194.59-104.89-306.89-81.9-18.23,3.73-54.84,23.97-67.31,8.6-32.53-40.1,75.58-55.22,96.92-57.56,124.02-13.62,257.03,23.67,331.92,128.14,9.14,12.75,32.76,41.83,8.9,52.75-24.53,11.22-41.72-29.01-54.58-43.61-2.6-2.95-6.59-3.99-8.95-6.41Z"/>
        <path class="cls-18" d="M2161.73,2133.36c46.77-5.32,96.62,10.04,132.53,39.87,14.47,12.02,42.71,38,22.63,56.36-20.31,18.58-39.17-13.72-53.77-25.23-69.27-54.62-162.68-20.26-218.6,36.26-12.68,12.82-43.8,69.04-65.86,43.37-17.2-20.01,19.9-58.44,33.86-72.56,37.56-37.97,95.35-71.95,149.19-78.07Z"/>
      </g>
    </g>
  </g>
</svg>